<svg width="85" height="96" viewBox="0 0 85 96" fill="none" xmlns="http://www.w3.org/2000/svg">
<path fill-rule="evenodd" clip-rule="evenodd" d="M1 7.58167H17.8998V11.6813H50.105V7.58167H67.5058V57.4155C66.6403 57.2788 65.7293 57.2333 64.8182 57.2333C63.1328 57.2333 61.4474 57.461 59.8986 57.871V17.0109H17.3531L9.06271 24.0259V75.8185H45.9142C45.9142 75.9551 45.9142 76.0462 45.9142 76.1373C45.9142 78.8704 46.4608 81.4669 47.5085 83.8356H1V7.58167V7.58167Z" stroke="#EF7F1A" stroke-width="1.37339" stroke-miterlimit="22.9256" stroke-linecap="round" stroke-linejoin="round"/>
<path fill-rule="evenodd" clip-rule="evenodd" d="M17.8999 3.75537H27.6935V5.07638H39.446V3.75537H50.1051V11.6814H17.8999V3.75537Z" stroke="#EF7F1A" stroke-width="1.37339" stroke-miterlimit="22.9256" stroke-linecap="round" stroke-linejoin="round"/>
<path d="M39.4457 1.25H27.6934V5.07636H39.4457V1.25Z" stroke="#EF7F1A" stroke-width="1.37339" stroke-miterlimit="22.9256" stroke-linecap="round" stroke-linejoin="round"/>
<path fill-rule="evenodd" clip-rule="evenodd" d="M17.3532 17.011H59.8987V57.8711C51.9271 60.012 46.0509 67.2548 45.9143 75.8185H9.06274V24.026L17.3532 17.011V17.011Z" stroke="#EF7F1A" stroke-width="1.37339" stroke-miterlimit="22.9256" stroke-linecap="round" stroke-linejoin="round"/>
<path fill-rule="evenodd" clip-rule="evenodd" d="M17.3532 17.011L9.06274 24.1171L17.3532 23.9804V17.011Z" stroke="#EF7F1A" stroke-width="0.686695" stroke-miterlimit="22.9256" stroke-linecap="round" stroke-linejoin="round"/>
<path d="M18.4919 32.9086H50.0594" stroke="#EF7F1A" stroke-width="0.686695" stroke-miterlimit="22.9256" stroke-linecap="round" stroke-linejoin="round"/>
<path d="M18.8108 37.1449H38.2159" stroke="#EF7F1A" stroke-width="0.686695" stroke-miterlimit="22.9256" stroke-linecap="round" stroke-linejoin="round"/>
<path d="M18.4919 46.3009H50.0594" stroke="#EF7F1A" stroke-width="0.686695" stroke-miterlimit="22.9256" stroke-linecap="round" stroke-linejoin="round"/>
<path d="M18.8108 50.5828H38.2159" stroke="#EF7F1A" stroke-width="0.686695" stroke-miterlimit="22.9256" stroke-linecap="round" stroke-linejoin="round"/>
<path d="M18.4919 58.5543H46.2331" stroke="#EF7F1A" stroke-width="0.686695" stroke-miterlimit="22.9256" stroke-linecap="round" stroke-linejoin="round"/>
<path d="M18.8108 62.8362H38.2159" stroke="#EF7F1A" stroke-width="0.686695" stroke-miterlimit="22.9256" stroke-linecap="round" stroke-linejoin="round"/>
<path d="M64.8182 95.0869C75.2838 95.0869 83.7679 86.6029 83.7679 76.1373C83.7679 65.6718 75.2838 57.1877 64.8182 57.1877C54.3527 57.1877 45.8687 65.6718 45.8687 76.1373C45.8687 86.6029 54.3527 95.0869 64.8182 95.0869Z" stroke="#EF7F1A" stroke-width="1.37339" stroke-miterlimit="22.9256"/>
<path fill-rule="evenodd" clip-rule="evenodd" d="M63.0873 85.931C63.1329 85.931 63.1329 85.931 63.1784 85.8854H63.224H63.2695C63.4517 85.8854 63.7706 85.521 63.9528 85.2933L64.0439 85.2021L64.1806 85.111C64.3628 84.9288 64.7272 84.5644 64.7272 84.3822V84.3367C64.7727 84.2911 64.7727 84.2911 64.7727 84.2911C64.7727 84.2456 64.7727 84.2 64.7727 84.1545L64.6361 83.9267C64.6361 83.8811 64.6361 83.8356 64.6361 83.8356C64.5905 83.79 64.5905 83.79 64.545 83.7445C64.4994 83.6989 64.4539 83.6989 64.3628 83.6534H64.3172C64.2261 83.6078 64.0895 83.5623 64.0439 83.5623C63.9528 83.5623 63.9073 83.6078 63.8617 83.6534C63.8617 83.6989 63.634 83.8811 63.5884 83.9722C63.5428 83.9722 63.4973 84.0178 63.4517 84.0633C63.4062 84.1089 63.3606 84.1545 63.3606 84.2L63.0418 84.4733C62.9962 84.5189 62.9507 84.5644 62.9051 84.5644C62.8596 84.61 62.8596 84.6555 62.814 84.7011V84.7466C62.7229 84.8377 62.5862 84.9744 62.4951 85.0199C62.4496 85.0655 62.4496 85.0655 62.4496 85.1566C62.4496 85.2477 62.4496 85.2933 62.4496 85.3388L62.4951 85.4299C62.4951 85.521 62.5407 85.6121 62.5862 85.7032C62.6318 85.7488 62.6774 85.7943 62.7685 85.7943L62.9051 85.8854C62.9507 85.8854 62.9962 85.931 63.0873 85.931ZM55.7535 69.8967L57.7122 71.2633C58.0311 71.491 58.2588 71.8099 58.3044 72.1743C58.3499 72.4021 58.3044 72.6298 58.2588 72.8576C58.3044 72.8576 58.3499 72.9031 58.441 72.9031L58.5777 72.9487C58.6232 72.9942 58.6688 72.9942 58.7143 72.9942C58.8054 73.0398 58.8965 73.0398 58.9421 73.0398L59.0332 73.0853L59.5343 73.1309H59.6254C59.8076 73.1764 60.0353 73.1764 60.0809 73.1309L60.1264 73.0853H60.172C60.2176 73.1309 60.3086 73.0853 60.3997 73.0853C60.4908 73.0853 60.582 73.0398 60.6275 73.0398L60.6731 72.9942C60.7642 72.9942 60.8553 72.9487 60.9464 72.9487C61.0375 72.9031 61.083 72.8576 61.1286 72.8576L61.1741 72.812H61.2197C61.2652 72.812 61.3563 72.7665 61.4475 72.7209C61.5386 72.7209 61.5841 72.6754 61.6297 72.6754C61.7208 72.6298 61.8119 72.6298 61.903 72.5843C62.0396 72.5843 62.1307 72.5387 62.2218 72.5387C62.2674 72.5387 62.3129 72.5387 62.3129 72.5387L62.3585 72.4932L63.224 72.5387H63.2695C63.3151 72.6298 63.4973 72.6298 63.6339 72.6754C63.6795 72.6754 63.7706 72.6754 63.8161 72.6754C63.9072 72.7209 63.9984 72.7665 64.0895 72.812C64.1806 72.812 64.2717 72.8576 64.3628 72.8576L64.4083 72.9031C64.4539 72.9031 64.545 72.9487 64.6361 72.9942C64.7272 73.0398 64.7727 73.0398 64.8183 73.0853C64.8183 73.0853 64.8183 73.1309 64.8183 73.0853L65.3194 72.9031C65.6382 72.7209 66.0482 72.6298 66.4582 72.5387C66.5037 72.5387 66.5037 72.5387 66.5493 72.5387C66.6404 72.5387 66.6859 72.5387 66.7315 72.5387V72.4932H67.4147V72.5387C67.4603 72.5387 67.5059 72.5387 67.597 72.5843C67.7792 72.5843 68.0069 72.6298 68.0525 72.6754H68.098C68.1891 72.7209 68.4624 72.812 68.7358 72.9031C68.918 72.9487 69.0546 72.9942 69.0546 72.9942H69.1002L69.1457 73.0398C69.1913 73.0398 69.1913 73.0398 69.1913 73.0398L69.2368 73.0853H69.2824C69.3279 73.0853 69.4191 73.0853 69.4646 73.1309H69.5101H70.1479H70.239C70.3756 73.1309 70.649 73.1309 70.7401 73.0398H70.7856H70.8311C70.8767 73.0398 70.9678 73.0398 71.0134 73.0398C71.1045 72.9942 71.1956 72.9487 71.2867 72.9031C71.4233 72.9031 71.5144 72.812 71.6511 72.7665C71.6055 72.5843 71.6055 72.4021 71.6511 72.2198C71.6966 71.901 71.8789 71.5821 72.1977 71.3544L74.202 69.9878C74.5209 69.76 74.8853 69.6689 75.2041 69.76C75.5685 69.8056 75.8874 69.9878 76.1152 70.3067L79.3949 74.9985C79.6227 75.3174 79.6682 75.6818 79.6227 76.0462C79.5771 76.3651 79.3494 76.6839 79.0761 76.9117L77.0718 78.3238C76.7529 78.506 76.3885 78.5971 76.0696 78.5516C75.8874 78.506 75.7508 78.4605 75.6141 78.3694L74.5664 79.1893C74.2475 79.5537 73.5643 80.0092 73.1999 80.2825L73.3365 80.5103C73.4732 80.647 73.6098 80.8747 73.7009 81.0569C73.7465 81.148 73.792 81.2391 73.8376 81.3302C73.8376 81.4213 73.8831 81.558 73.8831 81.6491C73.8831 81.8313 73.8831 81.968 73.8376 82.0591C73.8376 82.1502 73.8376 82.2413 73.8376 82.2868V82.3324L73.792 82.3779C73.792 82.3779 73.7465 82.4235 73.7009 82.5146C73.5187 82.7879 73.1087 83.4256 71.9699 83.2434V83.3801C71.9244 83.5623 71.8788 83.7445 71.7877 83.8811C71.6966 84.0178 71.56 84.1545 71.4233 84.2456C71.1045 84.4733 70.9678 84.4733 70.7401 84.5189C70.649 84.5189 70.5578 84.5189 70.3756 84.5189V84.5644C70.3301 84.5189 70.239 84.4733 70.1934 84.4733C70.1479 84.5644 70.1479 84.6555 70.1479 84.7011C70.1023 84.8833 70.0568 85.0199 69.8746 85.2477C69.7379 85.4755 69.5101 85.5666 69.3735 85.6577C69.2824 85.7032 69.2368 85.7032 69.2368 85.7488L69.1913 85.7943C69.1002 85.7943 68.9635 85.7943 68.8724 85.7943C68.5535 85.8399 68.4169 85.7943 68.1891 85.7032H68.098C68.0525 85.7943 68.0069 85.931 67.9614 86.0221C67.9158 86.1587 67.8247 86.2498 67.7336 86.3409C67.597 86.4776 67.4147 86.5232 67.2325 86.6143L67.0503 86.7054L66.4582 86.7965V86.7509C66.4126 86.7509 66.3671 86.7054 66.2759 86.7054C66.2304 86.7054 66.1848 86.7054 66.1393 86.6598C65.7749 86.5232 65.6382 86.3865 65.5471 86.2498C65.5016 86.2043 65.5016 86.1587 65.4105 86.1587V86.1132L65.3194 86.0221H65.2738C65.2738 85.931 65.0916 85.7943 65.0005 85.7032L64.9094 85.6121H64.8638C64.8638 85.6121 64.8183 85.6577 64.7272 85.7488C64.5905 85.8854 64.4539 86.0221 64.4083 86.0676V86.1132H64.3628C64.3172 86.1132 64.3172 86.1132 64.3172 86.1587L64.2717 86.2043C63.9984 86.5232 63.6795 86.6598 63.3606 86.7509C63.1329 86.7965 62.9051 86.7509 62.6773 86.7054C62.4496 86.6598 62.2674 86.5231 62.0852 86.3865C61.8574 86.2043 61.7208 85.9765 61.6297 85.7032C61.493 85.7488 61.3564 85.7943 61.1741 85.7943C61.083 85.7943 60.6275 85.7488 60.582 85.7488C60.3086 85.6121 60.0353 85.4755 59.8531 85.2477C59.7165 85.0655 59.5798 84.7922 59.5343 84.4733C59.3521 84.5189 59.1698 84.5189 58.9876 84.5644L58.9421 84.5189C58.8965 84.4733 58.851 84.4733 58.7599 84.4278C58.5777 84.3822 58.3499 84.2911 58.1221 84.0633C58.031 83.9722 57.9399 83.79 57.8488 83.6078C57.8033 83.4712 57.7578 83.3345 57.7578 83.1979C57.3933 83.2434 57.3022 83.2434 56.8923 83.1523H56.8467C56.5734 83.0157 56.3912 82.9701 56.3001 82.8335C56.1634 82.6968 56.0723 82.5601 55.9357 82.2868C55.9357 82.2413 55.9357 82.2413 55.8901 82.1957C55.8446 81.8769 55.799 81.7402 55.8901 81.3758C55.9812 81.1025 56.0723 80.9658 56.1634 80.8292L56.2545 80.647L56.3912 80.5559L56.619 80.3736V80.3281C56.5279 80.2825 56.3912 80.1459 56.2545 80.0548C56.0723 79.9181 55.9357 79.7815 55.799 79.6904L55.5712 79.5993L55.6623 79.5537L55.5257 79.4626C55.4346 79.3715 55.389 79.326 55.2979 79.326L55.2524 79.2804V79.2348L55.2068 79.1893C55.1613 79.1893 55.1613 79.1893 55.1157 79.1437L55.0702 79.0982L54.9791 79.0071L54.888 78.916L54.7513 78.8704L54.7057 78.8249C54.7057 78.7338 54.478 78.5971 54.2958 78.4605L54.1591 78.3694C54.068 78.4149 53.9769 78.4149 53.8858 78.4605C53.5669 78.506 53.2026 78.4605 52.8837 78.2327L50.8794 76.8206C50.5605 76.5928 50.3783 76.274 50.3328 75.9551C50.2417 75.5907 50.3328 75.2263 50.5605 74.9074L53.8403 70.2156C54.068 69.8967 54.3869 69.7145 54.7057 69.6689C55.0702 69.5778 55.4346 69.6689 55.7535 69.8967ZM57.8033 73.5409L54.8424 77.8227C54.9335 77.9138 55.1157 78.096 55.2524 78.1872L55.2979 78.2327C55.4346 78.2783 55.4801 78.3694 55.5712 78.4149C55.6623 78.506 55.7534 78.5971 55.8445 78.6427C56.209 78.916 56.619 79.2348 56.9378 79.5082C57.0289 79.5537 57.12 79.6904 57.2567 79.7359C57.3022 79.6448 57.3478 79.6448 57.3933 79.5537C57.4389 79.5082 57.4844 79.5082 57.5755 79.4626C57.6211 79.4171 57.6666 79.3715 57.7122 79.3715C57.8033 79.326 57.8488 79.2804 57.9399 79.2804C57.9855 79.2804 58.0766 79.2348 58.1677 79.2348C58.5321 79.1893 58.7143 79.2348 58.9876 79.3715C59.0787 79.3715 59.0787 79.3715 59.1699 79.4171C59.3065 79.5537 59.3976 79.5993 59.4887 79.6904C59.5343 79.7359 59.5798 79.827 59.6709 80.0092L59.762 80.1459L59.8076 80.4192L59.8987 80.3736C60.0353 80.237 60.172 80.1003 60.3542 80.0092C60.3998 80.0092 60.3997 80.0092 60.4453 79.9637L60.6275 79.8726L61.1741 79.827C61.3564 79.9181 61.5841 79.9637 61.7663 80.0548V80.1003H61.8574L62.3129 80.647V80.7381L62.404 81.0569H62.5407C62.6318 81.0569 62.7685 81.0114 62.9507 81.0114C63.0873 81.0114 63.1784 81.0569 63.3151 81.0569C63.3606 81.1025 63.4062 81.148 63.4517 81.148C63.5884 81.1936 63.7706 81.2847 63.9528 81.4669C63.9984 81.5124 63.9983 81.5124 63.9983 81.558C64.0439 81.6035 64.0439 81.6035 64.0895 81.6491L64.135 81.6947C64.3628 82.2868 64.3628 82.3324 64.3172 82.5146C64.3172 82.5601 64.3172 82.6057 64.3172 82.7423C64.4539 82.7879 64.5905 82.8335 64.7272 82.879C64.8639 82.9246 65.0005 83.0157 65.0916 83.1068C65.2283 83.1979 65.3194 83.289 65.3649 83.4256C65.456 83.5167 65.5016 83.6989 65.5927 83.8356C65.5927 83.8811 65.5927 83.9267 65.5927 83.9722L65.6382 84.0178V84.0633C65.6382 84.1544 65.6382 84.2 65.5927 84.2911C65.5927 84.3822 65.5927 84.4733 65.5471 84.61C65.5471 84.7011 65.5016 84.7922 65.456 84.8377L65.4105 84.9744H65.5016V85.0199C65.5927 85.1566 65.6838 85.2477 65.8204 85.3844L65.9571 85.4755L66.0482 85.5666C66.1849 85.7032 66.3215 85.8399 66.5037 85.8854C66.5948 85.931 66.6859 85.931 66.777 85.931C66.8226 85.8854 66.9137 85.8854 66.9137 85.8399H66.9592V85.7943C67.0503 85.7943 67.0959 85.7488 67.1414 85.7032C67.187 85.6577 67.2325 85.5666 67.2781 85.4755C67.3236 85.3388 67.3237 85.2022 67.3237 85.111C67.3237 85.0655 67.2781 84.9744 67.2325 84.9288L67.187 84.8833C67.0959 84.7922 67.0503 84.7922 67.0048 84.7011C66.9592 84.6555 66.9592 84.6555 66.9137 84.61C66.9137 84.5644 66.8681 84.5189 66.8681 84.5189H66.8226L66.777 84.4733C66.7315 84.4278 66.7315 84.3822 66.6859 84.3822L66.6404 84.3367C66.5948 84.2911 66.5948 84.2456 66.5493 84.2L66.4582 84.1545V84.1089L66.4126 84.0633C66.4126 84.0178 66.3671 84.0178 66.3671 84.0178L66.2759 83.9722V83.9267C66.2304 83.8811 66.2304 83.8811 66.1849 83.8356L66.1393 83.79L66.0937 83.6989C66.0937 83.6534 66.0938 83.6534 66.0482 83.6078L66.0026 83.5623V83.5167C66.0482 83.3801 66.0482 83.2434 66.1393 83.1523C66.2304 83.0612 66.3671 83.0612 66.5493 83.0612H66.5948C66.8226 83.2434 66.8681 83.289 66.9137 83.3345C66.9137 83.3801 66.9592 83.4256 67.0503 83.5167C67.0959 83.5623 67.0959 83.6078 67.1414 83.6078C67.187 83.6534 67.2325 83.6989 67.2781 83.7445L67.9614 84.4733C68.0069 84.5644 68.0525 84.61 68.098 84.6555C68.2347 84.7922 68.3258 84.8377 68.4169 84.8833L68.4625 84.9288C68.508 84.9288 68.5991 84.9744 68.6902 84.9744C68.8269 84.9744 68.9635 84.9288 69.0546 84.8833L69.1002 84.8377C69.2824 84.7466 69.3279 84.5644 69.3735 84.3822C69.3735 84.2 69.3279 83.9722 69.2824 83.8356L69.2368 83.7445C69.1913 83.6989 69.0546 83.5623 68.9635 83.4256C68.8724 83.3801 68.8269 83.3345 68.8269 83.3345H68.7813L68.7358 83.2434C68.7358 83.1979 68.7357 83.1979 68.6902 83.1523L68.5991 83.1068L68.508 83.0612V83.0157C68.508 82.9701 68.508 82.9245 68.4625 82.9245C68.4169 82.879 68.3714 82.8334 68.3258 82.7879C68.2803 82.7423 68.2802 82.7423 68.2347 82.6968L68.1891 82.6512L68.1436 82.5601C68.098 82.5146 68.098 82.5146 68.0525 82.469H68.0069V82.4235C68.0069 82.3779 67.9614 82.3779 67.9614 82.3779C67.9614 82.3324 67.9158 82.3324 67.8703 82.2868C67.7792 82.1957 67.7336 82.1046 67.7336 82.0135C67.7336 81.9224 67.7792 81.8313 67.8247 81.7402V81.6947L67.8703 81.6491C67.9158 81.6491 67.9614 81.6035 68.0069 81.558H68.0525C68.3713 81.5124 68.4169 81.6035 68.5535 81.7857C68.6446 81.8769 68.6902 81.9224 68.7358 81.968C68.7813 82.0135 68.7813 82.0135 68.8724 82.0591C68.918 82.1502 68.9635 82.1957 68.9635 82.2413C69.0091 82.2868 69.0546 82.3324 69.1002 82.4235C69.2368 82.469 69.4191 82.6968 69.6468 82.9245C69.9201 83.2434 70.1934 83.5623 70.2845 83.6078C70.3301 83.6534 70.3756 83.6534 70.3756 83.6534C70.4212 83.6989 70.4667 83.6989 70.5123 83.6989C70.6489 83.6989 70.6489 83.6989 70.6945 83.6534H70.7401C70.8312 83.6534 70.9222 83.6078 70.9678 83.5623C71.0133 83.4712 71.0589 83.4256 71.0589 83.3801V83.3345L71.1045 83.289C71.15 83.2434 71.1956 83.2434 71.2411 83.2434C71.2411 83.2434 71.15 83.2434 71.15 83.1979V83.1523V83.1068C71.15 83.0157 71.15 82.9701 71.15 82.9701C71.1045 82.9245 71.1045 82.879 71.0589 82.879V82.8335V82.7879C71.0134 82.6968 70.8767 82.5601 70.7856 82.469C70.7401 82.4235 70.6489 82.3779 70.6489 82.2868L69.6923 81.2391C69.6468 81.1936 69.6012 81.148 69.5557 81.1025C69.419 80.9658 69.2824 80.8292 69.2368 80.5559V80.5103C69.2824 80.4192 69.3279 80.3281 69.3735 80.2825C69.4646 80.237 69.5102 80.1914 69.6468 80.1914H69.6923C69.9201 80.1914 69.9657 80.2825 70.1023 80.4647C70.1479 80.5103 70.239 80.6014 70.3301 80.6925C70.3756 80.7381 70.4212 80.7836 70.4667 80.8292L70.5123 80.8747L71.56 82.0591C71.7422 82.2413 71.9699 82.469 72.4255 82.4235C72.471 82.4235 72.6077 82.3779 72.6988 82.3324C72.7443 82.3324 72.7899 82.2868 72.7899 82.2868V82.2413L72.8354 82.1957C72.9265 82.1957 72.9265 82.1502 72.9721 82.1046C73.0176 82.0591 73.0177 81.968 73.0177 81.8769C73.0632 81.7858 73.0632 81.6491 73.0177 81.558C72.9721 81.4669 72.9266 81.3302 72.881 81.2847C72.7899 81.148 72.6988 81.0569 72.6077 80.9658L72.4255 80.7381L72.0155 80.1914C71.8788 80.0548 71.7422 79.8726 71.6055 79.6904L71.2867 79.2348H71.2411H71.1956L71.15 79.1437C71.1045 79.0071 71.0134 78.8704 70.8767 78.7338C70.4667 78.2327 69.7379 77.4583 69.4646 77.0028C69.4646 76.9573 69.3735 76.8661 69.2824 76.7295C69.2368 76.6839 69.1913 76.5928 69.1457 76.5928C69.1002 76.5473 68.8724 76.5473 68.6902 76.5473H68.508H68.1436C67.6881 76.5473 67.0959 76.5017 66.9592 76.5473L66.9137 76.5928V76.6384C66.8226 76.7295 66.5948 77.0028 66.5037 77.0484C66.4126 77.0939 66.3671 77.1395 66.3215 77.2306L66.2759 77.2761L66.0937 77.4583C66.0482 77.4583 66.0482 77.5039 66.0482 77.5494L66.0026 77.595H65.9571C65.9115 77.6405 65.866 77.6861 65.7749 77.7316C65.7293 77.7772 65.7293 77.7772 65.6838 77.8227V77.8683C65.5471 77.9138 65.0916 78.3694 64.8638 78.506C64.6816 78.6427 64.4539 78.8249 64.4083 78.8704V78.916H64.3628C64.3172 78.916 64.1806 78.9615 64.0439 79.0526C63.9984 79.0982 63.9528 79.0982 63.9073 79.1437C63.7706 79.1893 63.6339 79.2348 63.4973 79.2804C63.3606 79.3259 63.3606 79.326 63.224 79.3715C63.0873 79.3715 62.9962 79.3715 62.9507 79.4171H62.9051C62.404 79.4171 62.3129 79.4171 61.903 79.2804C61.8119 79.2804 61.7208 79.2348 61.6297 79.1893C61.5386 79.1437 61.493 79.0982 61.4019 79.0526C61.3108 79.0071 61.2652 78.9615 61.2197 78.916C61.1741 78.8704 61.1286 78.8249 61.083 78.7793C60.9919 78.7338 60.9464 78.6427 60.9008 78.6427H60.8553L60.6275 78.1872V78.1416C60.6275 77.8683 60.7186 77.7772 60.8097 77.6861C60.8553 77.6405 60.8553 77.595 60.9008 77.595V77.5494L60.9464 77.4583H60.9919C61.0375 77.4128 61.083 77.4128 61.083 77.3672L61.1286 77.2761C61.1741 77.2306 61.2197 77.2306 61.2197 77.185C61.2652 77.185 61.2652 77.1395 61.3108 77.0939C62.0396 76.3195 62.814 75.2263 63.5428 74.4974C63.5884 74.4519 63.5884 74.4063 63.6339 74.4063C63.6339 74.3608 63.6339 74.3608 63.6795 74.2697L63.725 74.2241C63.7706 74.2241 63.7706 74.2241 63.7706 74.2241C63.7706 74.1786 63.7706 74.1786 63.8161 74.133V74.0875H63.8617C63.9073 74.0419 63.9528 73.9964 64.0439 73.9053C64.0895 73.8597 64.135 73.7686 64.1806 73.7231C64.135 73.7231 64.0439 73.6775 63.9528 73.632C63.7251 73.5409 63.4517 73.4953 63.3151 73.4497H63.224C63.1329 73.4042 63.0418 73.4042 62.9051 73.4042H62.8596C62.814 73.3587 62.6773 73.3587 62.5407 73.3587H62.4951C62.404 73.3587 62.3129 73.3587 62.2674 73.4042C62.2218 73.4042 62.2218 73.4042 62.1763 73.4497H62.1307C62.0852 73.4497 61.9941 73.4497 61.9485 73.4497C61.8574 73.4953 61.8119 73.4953 61.7208 73.5409C61.6296 73.5864 61.493 73.632 61.4019 73.6775C61.3563 73.6775 61.2653 73.7231 61.1741 73.7686C61.1286 73.7686 61.0375 73.7686 60.9919 73.8142C60.8553 73.8142 60.6731 73.8597 60.6275 73.9053V73.9508H60.582C60.4453 73.9508 60.3086 73.9508 60.2175 73.9508C60.1264 73.9964 60.0353 73.9964 59.8987 73.9964C59.8076 73.9964 59.6709 73.9964 59.5798 73.9964C59.4431 73.9508 59.3065 73.9508 59.2154 73.9964H59.1699L59.1243 73.9508C59.0787 73.9053 58.8965 73.9053 58.7599 73.8597C58.6688 73.8597 58.6232 73.8142 58.5777 73.8142C58.441 73.8142 58.3499 73.7686 58.2588 73.7231C58.1677 73.6775 58.0766 73.632 57.9855 73.632C57.9855 73.632 57.8944 73.5864 57.8033 73.5409ZM74.7942 70.8077L72.7899 72.2198C72.7443 72.2654 72.6988 72.3565 72.6532 72.4021C72.6532 72.4932 72.6532 72.5843 72.6988 72.6754L75.7052 76.9572L76.0241 77.3672C76.0696 77.4583 76.1607 77.5039 76.2063 77.5039C76.2974 77.5494 76.3885 77.5039 76.4796 77.4583L78.4839 76.0918C78.5294 76.0007 78.575 75.9551 78.6205 75.864C78.6205 75.7729 78.6205 75.6818 78.5294 75.5907L75.2497 70.8988C75.2041 70.8077 75.113 70.7622 75.0219 70.7622C74.9308 70.7622 74.8397 70.7622 74.7942 70.8077ZM74.9764 77.7772C74.202 76.8206 72.7443 74.543 72.0155 73.4953H71.9699C71.9244 73.5409 71.8789 73.5409 71.8789 73.5864L71.8333 73.632H71.7877C71.7422 73.632 71.6055 73.6775 71.5144 73.7231C71.4689 73.7231 71.3778 73.7686 71.3322 73.7686C71.2411 73.8142 71.15 73.8142 71.0589 73.8597C70.8767 73.9053 70.7856 73.9053 70.6034 73.9508C70.5123 73.9508 70.3756 73.9508 70.3301 73.9964H69.6468C69.5557 73.9508 69.3735 73.9053 69.1913 73.9053C68.8269 73.8597 68.4169 73.6775 68.0069 73.5864V73.5409C67.9614 73.4953 67.8703 73.4953 67.7792 73.4497C67.6881 73.4042 67.597 73.4042 67.5059 73.4042L67.0048 73.3587H66.9137C66.777 73.3587 66.5948 73.3587 66.5493 73.4042L66.5037 73.4497H66.4582C66.4126 73.4497 66.3215 73.4497 66.2304 73.4497C66.1393 73.4497 66.0938 73.4953 66.0482 73.5409H66.0026C65.9115 73.5409 65.7293 73.632 65.5471 73.6775C65.3649 73.7686 65.2283 73.8597 65.1371 73.9053L63.3606 76.0007V76.0462L63.3151 76.0918H63.2695C63.1784 76.1829 63.1329 76.274 63.0418 76.3651C62.7685 76.7295 62.404 77.1395 62.0852 77.5039C62.0396 77.5494 61.9941 77.595 61.903 77.6861C61.8119 77.8227 61.6752 77.9594 61.5841 78.096C61.6297 78.1416 61.6752 78.2327 61.7663 78.2783H61.8119C61.8119 78.3238 61.903 78.3694 61.9941 78.4149C62.0396 78.4605 62.1763 78.506 62.2218 78.506H62.2674C62.3585 78.5516 62.4951 78.5971 62.6773 78.5971C62.814 78.5971 62.9507 78.5516 63.0873 78.506C63.0873 78.506 63.1329 78.506 63.1784 78.506L63.224 78.4605L63.2695 78.4149H63.3151C63.4517 78.4149 63.634 78.3238 63.7706 78.2327L64.135 78.0049C64.2261 77.9594 64.2717 77.9138 64.2717 77.9138L64.3172 77.8683V77.8227C64.4994 77.7772 64.5905 77.6861 64.6816 77.595C64.6816 77.595 64.7272 77.5494 64.8183 77.5039L64.9549 77.3672C65.0916 77.2306 65.1827 77.185 65.2283 77.0939C65.3649 77.0028 65.5016 76.9117 65.7293 76.5928C65.9571 76.4106 66.1393 76.1829 66.3671 75.9551C66.4126 75.9096 66.4582 75.864 66.4582 75.864C66.5037 75.8185 66.5493 75.7729 66.5948 75.7273L66.6404 75.6818H66.6859C66.9137 75.7274 67.3692 75.7274 67.8703 75.6818C68.5991 75.6818 69.4646 75.6818 69.6013 75.8185C69.829 75.9551 70.6034 77.0028 70.8767 77.4128H70.9223L70.9678 77.4583C71.0133 77.5494 71.0134 77.595 71.0589 77.6405L71.1045 77.6861L71.2411 77.8683H71.2867L71.3322 77.9138V77.9594H71.3778V78.0049C71.4689 78.1416 71.7422 78.4605 71.9244 78.6882L72.0611 78.8704L72.1522 79.0071C72.2888 79.1893 72.5166 79.5082 72.6532 79.6448C72.6988 79.5993 72.7443 79.5993 72.7899 79.5537C73.3821 79.0071 74.2475 78.3694 74.8853 77.8683L74.9308 77.7772H74.9764ZM57.1656 72.1287L55.1613 70.7166C55.0702 70.6711 54.9791 70.6711 54.888 70.6711C54.7969 70.6711 54.7513 70.7166 54.7057 70.8077L51.3805 75.4996C51.3349 75.5907 51.3349 75.6818 51.3349 75.7729C51.3805 75.864 51.426 75.9551 51.4716 76.0007L53.4759 77.3672C53.5214 77.4128 53.6125 77.4583 53.7036 77.4128L53.9769 77.0939L54.0225 77.0028V76.9572L54.068 76.9117C54.1136 76.9117 54.1136 76.8662 54.1591 76.8206L55.2068 75.3629V75.3174L55.2524 75.2718C55.3435 75.2263 55.3435 75.2263 55.389 75.1352L55.4346 75.0896L55.4802 74.9985C55.5257 74.953 55.5713 74.9074 55.6168 74.8163L56.9378 72.9942L57.2111 72.5843C57.2567 72.4932 57.3022 72.4021 57.2567 72.3565C57.2567 72.2654 57.2111 72.1743 57.1656 72.1287ZM60.7642 83.5167C60.7186 83.5623 60.7186 83.6078 60.6731 83.6534L60.6275 83.6989C60.5364 83.7445 60.4453 83.8811 60.3997 84.0633C60.3997 84.1544 60.3997 84.2456 60.3997 84.3367C60.3997 84.4278 60.4453 84.5189 60.4453 84.61C60.5364 84.7466 60.6731 84.8833 60.9008 84.9288C61.3563 85.0199 61.6297 84.7466 61.9485 84.3822C62.0396 84.2911 62.1307 84.2 62.1763 84.1089L63.3606 82.9701C63.4062 82.879 63.4517 82.7423 63.4973 82.6057C63.4973 82.469 63.4973 82.3324 63.4062 82.1957C63.3606 82.1046 63.3151 82.0135 63.1784 81.968C63.0873 81.8769 62.9507 81.8769 62.7685 81.8313C62.6774 81.8769 62.5862 81.8769 62.4951 81.9224C62.404 81.9224 62.3585 81.968 62.3129 82.0135V82.0591H62.2218C62.1763 82.1046 62.0852 82.1957 62.0852 82.2413C62.0396 82.2413 62.0396 82.2868 62.0396 82.3324H61.9941V82.3779C61.903 82.3779 61.903 82.3779 61.8574 82.4235L61.7663 82.5601C61.6752 82.6968 61.5385 82.8334 61.4019 82.9245L61.1741 83.1523H61.1286C61.083 83.2434 60.9919 83.3345 60.9008 83.4256C60.8553 83.4256 60.8097 83.4712 60.7642 83.5167ZM58.8966 83.6078C58.9421 83.6078 58.9421 83.6534 59.0332 83.6534C59.3976 83.7445 59.5343 83.5623 59.7165 83.3801L61.083 81.968C61.1286 81.9224 61.1741 81.8769 61.2197 81.8313C61.4019 81.6946 61.5841 81.558 61.5841 81.2847C61.5385 81.1025 61.493 80.9658 61.4019 80.8747C61.3108 80.7836 61.2653 80.7381 61.1741 80.7381C61.083 80.6925 61.0375 80.6925 60.9464 80.6925C60.9008 80.6925 60.8553 80.7381 60.8097 80.7381L60.7642 80.7836H60.7186L60.6731 80.8292C60.5364 80.8747 60.5364 80.9203 60.4909 80.9658L60.3542 81.1025C60.3087 81.148 60.2631 81.1936 60.2175 81.2391C60.2175 81.2847 60.1264 81.3302 60.1264 81.3758C60.0353 81.3758 59.9898 81.4213 59.9442 81.5124L59.7165 81.6947C59.7165 81.7402 59.7165 81.7402 59.6709 81.7857V81.8313L59.5798 81.8769L59.5343 81.9224C59.4887 81.968 59.4887 81.968 59.4887 82.0135H59.4432C59.3976 82.0591 59.3521 82.0591 59.3521 82.1046C59.3521 82.1046 59.3065 82.1502 59.3065 82.1957L59.2609 82.2413H59.2154C59.2154 82.2413 59.1699 82.2413 59.1699 82.2868C59.1243 82.3324 59.1243 82.3324 59.1243 82.3779L59.0787 82.4235L58.9876 82.469C58.9421 82.5146 58.851 82.5601 58.8054 82.6512C58.7599 82.6968 58.7143 82.7423 58.6688 82.879L58.6232 82.9245C58.6232 82.9245 58.5777 83.0157 58.5777 83.1068C58.5777 83.1979 58.6232 83.2434 58.6232 83.289H58.6688V83.3345C58.7143 83.4256 58.7143 83.4712 58.7599 83.5167H58.8054C58.851 83.5623 58.8966 83.6078 58.8966 83.6078ZM57.5755 82.3779C57.7122 82.3779 57.8489 82.3324 57.8944 82.2868V82.2413H57.9399C58.1221 82.1502 58.2588 82.0135 58.3955 81.8769L58.4866 81.7402L58.6232 81.6035C58.7599 81.4669 58.9877 81.2847 59.0332 81.1936V81.148C59.0332 80.7381 59.0332 80.4192 58.8054 80.1914C58.3044 79.7815 57.8489 80.2825 57.4389 80.7381L57.2111 80.9658L57.0745 81.0569C56.8923 81.2391 56.71 81.4213 56.6645 81.7402C56.71 81.9224 56.7556 82.0135 56.8011 82.1502C56.8922 82.2413 56.9834 82.2868 57.12 82.3324C57.2111 82.3779 57.3933 82.3779 57.5755 82.3779ZM71.2411 77.8683C71.2411 77.8683 71.1956 77.8683 71.2411 77.8683V77.8683Z" fill="#EF7F1A"/>
</svg>
