<svg width="83" height="83" viewBox="0 0 83 83" fill="none" xmlns="http://www.w3.org/2000/svg">
<path fill-rule="evenodd" clip-rule="evenodd" d="M41.5867 7.00439C60.5363 7.00439 75.8873 22.4009 75.8873 41.3506C75.8873 48.6389 73.6097 55.4261 69.6923 60.9834H13.4812C9.56373 55.4261 7.28613 48.6389 7.28613 41.3506C7.28613 22.4009 22.6371 7.00439 41.5867 7.00439V7.00439Z" stroke="#EF7F1A" stroke-width="0.686695" stroke-miterlimit="22.9256" stroke-linecap="round" stroke-linejoin="round"/>
<path d="M23.1383 60.7103C17.8543 55.654 14.8479 48.639 14.8479 41.3507C14.8479 26.5463 26.828 14.5662 41.5868 14.5662C46.0509 14.5662 50.4239 15.705 54.2958 17.8003" stroke="#EF7F1A" stroke-width="1.37339" stroke-miterlimit="22.9256" stroke-linecap="round" stroke-linejoin="round"/>
<path d="M41.5869 46.6801C44.5303 46.6801 46.9164 44.294 46.9164 41.3506C46.9164 38.4071 44.5303 36.021 41.5869 36.021C38.6434 36.021 36.2573 38.4071 36.2573 41.3506C36.2573 44.294 38.6434 46.6801 41.5869 46.6801Z" stroke="#EF7F1A" stroke-width="1.37339" stroke-miterlimit="22.9256" stroke-linecap="round" stroke-linejoin="round"/>
<path d="M45.5044 37.6609L60.7187 22.1277" stroke="#EF7F1A" stroke-width="1.37339" stroke-miterlimit="22.9256" stroke-linecap="round" stroke-linejoin="round"/>
<path d="M61.5386 45.1314L68.2347 46.3158M61.1742 35.8844L67.6881 33.9712L61.1742 35.8844ZM57.8489 53.513L63.3606 57.5215L57.8489 53.513Z" stroke="#EF7F1A" stroke-width="1.37339" stroke-miterlimit="22.9256" stroke-linecap="round" stroke-linejoin="round"/>
<path fill-rule="evenodd" clip-rule="evenodd" d="M41.5868 0.718262C64.0439 0.718262 82.2191 18.8935 82.2191 41.3506C82.2191 49.1855 79.9871 56.5194 76.1152 62.7144C76.4796 62.1678 76.7985 61.5756 77.1173 60.9835H6.05627C6.37513 61.5756 6.7396 62.1678 7.10401 62.7144C3.2321 56.5194 1 49.1855 1 41.3506C1 18.8935 19.1752 0.718262 41.5868 0.718262V0.718262ZM76.1152 62.76C75.7508 63.3066 75.3863 63.8532 75.0219 64.3999C75.3863 63.8532 75.7508 63.3066 76.1152 62.76ZM74.9764 64.4454C74.612 64.9465 74.2475 65.4931 73.8376 65.9942C74.2475 65.4931 74.612 64.9465 74.9764 64.4454ZM73.792 66.0397C73.4276 66.5408 73.0176 67.0419 72.6077 67.5429C73.0176 67.0419 73.4276 66.5408 73.792 66.0397ZM72.5621 67.5885C72.1522 68.0896 71.7422 68.5451 71.3322 69.0006C71.7422 68.5451 72.1522 68.0896 72.5621 67.5885ZM71.2411 69.0917C71.1044 69.2284 70.9223 69.4106 70.7856 69.5472C70.9223 69.4106 71.1044 69.2284 71.2411 69.0917ZM70.7856 69.5472C70.5123 69.8205 70.239 70.1394 69.9201 70.4127C70.239 70.1394 70.5123 69.8205 70.7856 69.5472ZM69.829 70.5038C69.6923 70.6405 69.5557 70.7771 69.419 70.9138C69.5557 70.7771 69.6923 70.6405 69.829 70.5038ZM69.2824 71.0049C69.0546 71.2782 68.7813 71.5059 68.508 71.7337C68.7813 71.5059 69.0546 71.2782 69.2824 71.0049ZM68.3714 71.8704C68.2347 72.007 68.0981 72.0981 67.9614 72.2348C68.0981 72.0981 68.2347 72.007 68.3714 71.8704ZM67.7792 72.3714C67.5058 72.5992 67.2781 72.7814 67.0048 73.0092C67.2781 72.7814 67.5058 72.5992 67.7792 72.3714ZM66.8226 73.1458C66.686 73.2369 66.5492 73.3736 66.4126 73.4647C66.5492 73.3736 66.686 73.2369 66.8226 73.1458ZM66.1849 73.6469C66.0027 73.7835 65.7748 73.9658 65.5471 74.148C65.7748 73.9658 66.0027 73.7835 66.1849 73.6469ZM65.2738 74.3302C65.1371 74.4213 65.0005 74.5124 64.8638 74.6035C65.0005 74.5124 65.1371 74.4213 65.2738 74.3302ZM64.5905 74.8312C64.4539 74.9223 64.3172 75.0135 64.1806 75.1046C64.3172 75.0135 64.4539 74.9223 64.5905 74.8312ZM63.5884 75.469C63.4973 75.5601 63.3606 75.6056 63.224 75.6967C63.3606 75.6056 63.4973 75.5601 63.5884 75.469ZM62.9051 75.9245C62.7685 75.97 62.6318 76.0611 62.5407 76.1522C62.6318 76.0611 62.7685 75.97 62.9051 75.9245ZM61.903 76.5167C61.8119 76.5622 61.6752 76.6078 61.5841 76.6989C61.6752 76.6078 61.8119 76.5622 61.903 76.5167ZM61.1741 76.9266C61.0375 76.9722 60.9464 77.0633 60.8097 77.1088C60.9464 77.0633 61.0375 76.9722 61.1741 76.9266ZM60.172 77.4733C60.0353 77.5188 59.9442 77.5644 59.8531 77.6099C59.9442 77.5644 60.0353 77.5188 60.172 77.4733ZM59.3976 77.8377C59.261 77.8832 59.1698 77.9288 59.0787 78.0199C59.1698 77.9288 59.261 77.8832 59.3976 77.8377ZM58.441 78.2932C58.3499 78.3387 58.2133 78.3843 58.1222 78.4298C58.2133 78.3843 58.3499 78.3387 58.441 78.2932ZM57.5755 78.6576C57.4844 78.7032 57.3478 78.7487 57.2567 78.7943C57.3478 78.7487 57.4844 78.7032 57.5755 78.6576ZM55.7079 79.432C55.6168 79.4775 55.4801 79.4775 55.389 79.5231C55.4801 79.4775 55.6168 79.4775 55.7079 79.432ZM54.7969 79.7509C54.7058 79.7509 54.6602 79.7964 54.5691 79.7964C54.6602 79.7964 54.7058 79.7509 54.7969 79.7509ZM52.8837 80.343C52.7926 80.3886 52.7471 80.3886 52.656 80.4341C52.7471 80.3886 52.7926 80.3886 52.8837 80.343ZM51.836 80.6163C51.7449 80.6619 51.6538 80.6619 51.5627 80.7074C51.6538 80.6619 51.7449 80.6619 51.836 80.6163ZM50.925 80.8441C50.8339 80.8896 50.7883 80.8897 50.6972 80.8897C50.7883 80.8897 50.8339 80.8896 50.925 80.8441ZM49.8773 81.1174C49.7862 81.1174 49.695 81.1174 49.6039 81.163C49.695 81.1174 49.7862 81.1174 49.8773 81.1174ZM47.8274 81.4818C47.7818 81.4818 47.6908 81.4818 47.6452 81.4818C47.6908 81.4818 47.7818 81.4818 47.8274 81.4818ZM46.9164 81.5729C46.8253 81.6185 46.7797 81.6185 46.6886 81.6185C46.7797 81.6185 46.8253 81.6185 46.9164 81.5729ZM36.5305 81.6185C36.4394 81.6185 36.3483 81.6185 36.3028 81.5729C36.3483 81.6185 36.4394 81.6185 36.5305 81.6185ZM35.574 81.4818C35.4829 81.4818 35.4373 81.4818 35.3462 81.4818C35.4373 81.4818 35.4829 81.4818 35.574 81.4818ZM34.4807 81.2996C34.3896 81.2996 34.344 81.2996 34.2529 81.2541C34.344 81.2996 34.3896 81.2996 34.4807 81.2996ZM33.5697 81.163C33.4786 81.1174 33.433 81.1174 33.3419 81.1174C33.433 81.1174 33.4786 81.1174 33.5697 81.163ZM32.4764 80.8897C32.4309 80.8897 32.3398 80.8896 32.2942 80.8441C32.3398 80.8896 32.4309 80.8897 32.4764 80.8897ZM30.5177 80.4341C30.4722 80.3886 30.381 80.3886 30.3355 80.343C30.381 80.3886 30.4722 80.3886 30.5177 80.4341ZM29.6977 80.1608C29.6066 80.1153 29.5155 80.1153 29.4244 80.0697C29.5155 80.1153 29.6066 80.1153 29.6977 80.1608ZM28.6045 79.7964C28.559 79.7964 28.4678 79.7509 28.4223 79.7509C28.4678 79.7509 28.559 79.7964 28.6045 79.7964ZM27.7846 79.5231C27.6935 79.4775 27.6024 79.4775 27.5113 79.432C27.6024 79.4775 27.6935 79.4775 27.7846 79.5231ZM25.9625 78.7943C25.8259 78.7487 25.7347 78.7032 25.6436 78.6576C25.7347 78.7032 25.8259 78.7487 25.9625 78.7943ZM25.097 78.4298C24.9604 78.3843 24.8692 78.3387 24.7326 78.2932C24.8692 78.3387 24.9604 78.3843 25.097 78.4298ZM24.1404 78.0199C24.0493 77.9288 23.9127 77.8832 23.8216 77.8377C23.9127 77.8832 24.0493 77.9288 24.1404 78.0199ZM23.366 77.6099C23.2294 77.5644 23.1383 77.5188 23.0472 77.4733C23.1383 77.5188 23.2294 77.5644 23.366 77.6099ZM22.3639 77.1088C22.2728 77.0633 22.1361 76.9722 22.045 76.9266C22.1361 76.9722 22.2728 77.0633 22.3639 77.1088ZM21.635 76.6989C21.4984 76.6078 21.4073 76.5622 21.2707 76.5167C21.4073 76.5622 21.4984 76.6078 21.635 76.6989ZM20.6785 76.1522C20.5418 76.0611 20.4052 75.97 20.314 75.9245C20.4052 75.97 20.5418 76.0611 20.6785 76.1522ZM19.9496 75.6967C19.8585 75.6056 19.7219 75.5601 19.5852 75.469C19.7219 75.5601 19.8585 75.6056 19.9496 75.6967ZM19.0386 75.1046C18.9019 75.0135 18.7653 74.9223 18.6286 74.8312C18.7653 74.9223 18.9019 75.0135 19.0386 75.1046ZM18.3553 74.6035C18.2187 74.5124 18.082 74.4213 17.9453 74.3302C18.082 74.4213 18.2187 74.5124 18.3553 74.6035ZM17.672 74.148C17.4443 73.9658 17.2165 73.7835 16.9888 73.6469C17.2165 73.7835 17.4443 73.9658 17.672 74.148ZM16.761 73.4647C16.6243 73.3736 16.4877 73.2369 16.3511 73.1458C16.4877 73.2369 16.6243 73.3736 16.761 73.4647ZM16.2144 73.0092C15.9411 72.7814 15.6677 72.5992 15.44 72.3714C15.6677 72.5992 15.9411 72.7814 16.2144 73.0092ZM15.2578 72.2348C15.1211 72.0981 14.9845 72.007 14.8478 71.8704C14.9845 72.007 15.1211 72.0981 15.2578 72.2348ZM14.7112 71.7337C14.4379 71.5059 14.1645 71.2782 13.8912 71.0049C14.1645 71.2782 14.4379 71.5059 14.7112 71.7337ZM13.8002 70.9138C13.6635 70.7771 13.5268 70.6405 13.3446 70.5038C13.5268 70.6405 13.6635 70.7771 13.8002 70.9138ZM13.2535 70.4127C12.9802 70.1394 12.7068 69.8205 12.388 69.5472C12.7068 69.8205 12.9802 70.1394 13.2535 70.4127ZM12.388 69.5472C12.2513 69.4106 12.1147 69.2284 11.978 69.0917C12.1147 69.2284 12.2513 69.4106 12.388 69.5472ZM11.8869 69.0006C11.4769 68.5451 11.067 68.0896 10.6571 67.5885C11.067 68.0896 11.4769 68.5451 11.8869 69.0006ZM10.5659 67.5429C10.156 67.0419 9.79158 66.5408 9.38161 66.0397C9.79158 66.5408 10.156 67.0419 10.5659 67.5429ZM9.33601 65.9942C8.92605 65.4931 8.56163 64.9465 8.19721 64.4454C8.56163 64.9465 8.92605 65.4931 9.33601 65.9942ZM8.19721 64.3999C7.78725 63.8532 7.46843 63.3066 7.10401 62.76C7.46843 63.3066 7.78725 63.8532 8.19721 64.3999Z" stroke="#EF7F1A" stroke-width="1.37339" stroke-miterlimit="22.9256" stroke-linecap="round" stroke-linejoin="round"/>
<path fill-rule="evenodd" clip-rule="evenodd" d="M77.1174 60.9834C70.1935 73.5102 56.8924 81.9373 41.5869 81.9373C26.327 81.9373 12.9803 73.5102 6.0564 60.9834H77.1174V60.9834Z" stroke="#EF7F1A" stroke-width="1.37339" stroke-miterlimit="22.9256" stroke-linecap="round" stroke-linejoin="round"/>
<path fill-rule="evenodd" clip-rule="evenodd" d="M73.3821 66.6318C65.9116 75.97 54.478 81.9373 41.5869 81.9373C28.7412 81.9373 17.2621 75.97 9.83716 66.6318H73.3821Z" stroke="#EF7F1A" stroke-width="0.686695" stroke-miterlimit="22.9256" stroke-linecap="round" stroke-linejoin="round"/>
</svg>
