<svg width="90" height="83" viewBox="0 0 90 83" fill="none" xmlns="http://www.w3.org/2000/svg">
<path fill-rule="evenodd" clip-rule="evenodd" d="M69.3279 19.7156H80.8981C85.18 19.7156 88.733 23.2231 88.733 27.505V63.1266C88.733 67.4084 85.18 70.9615 80.8981 70.9615H72.3343C72.3343 70.9615 73.6098 78.6142 65.4104 81.8029C69.1457 75.5622 60.6275 70.9615 60.6275 70.9615H28.2401C23.9127 70.9615 20.4052 67.4084 20.4052 63.1266V60.6668C21.3617 61.5778 22.6372 62.3977 24.2771 63.081C20.5418 56.8404 29.1056 52.1941 29.1056 52.1941H61.493C65.7748 52.1941 69.3279 48.6866 69.3279 44.3592V19.7156V19.7156Z" stroke="#EF7F1A" stroke-width="1.37339" stroke-miterlimit="22.9256" stroke-linecap="round" stroke-linejoin="round"/>
<path fill-rule="evenodd" clip-rule="evenodd" d="M61.493 0.948242H8.83494C4.50751 0.948242 1 4.50129 1 8.78317V44.3592C1 48.6867 4.50751 52.1942 8.83494 52.1942H17.3532C17.3532 52.1942 16.1233 59.8469 24.2771 63.0811C20.5418 56.8405 29.1056 52.1942 29.1056 52.1942H61.493C65.7749 52.1942 69.3279 48.6867 69.3279 44.3592V8.78317C69.3279 4.50129 65.7749 0.948242 61.493 0.948242V0.948242Z" stroke="#EF7F1A" stroke-width="1.37339" stroke-miterlimit="22.9256" stroke-linecap="round" stroke-linejoin="round"/>
<path d="M54.0224 33.3812H50.5605C49.8812 33.3812 49.3306 33.9319 49.3306 34.6111V43.8126C49.3306 44.4919 49.8812 45.0425 50.5605 45.0425H54.0224C54.7017 45.0425 55.2523 44.4919 55.2523 43.8126V34.6111C55.2523 33.9319 54.7017 33.3812 54.0224 33.3812Z" stroke="#EF7F1A" stroke-width="1.37339" stroke-miterlimit="22.9256"/>
<path d="M49.3306 34.5655C47.9641 33.5178 46.552 32.4246 45.732 31.5591C44.8665 30.6481 44.5477 29.9192 44.2744 29.1904C44.0011 28.416 43.7277 27.6416 43.5911 26.9583C43.4544 26.2295 43.4089 25.5918 43.3633 25.1363C43.2722 24.7263 43.1356 24.5441 42.8167 24.453C42.5434 24.3619 42.1334 24.4074 41.769 24.453C41.4046 24.5441 41.0857 24.6352 40.858 25.0452C40.6302 25.4096 40.448 26.0473 40.3569 26.9128C40.2658 27.7783 40.3114 28.7804 40.4025 29.7826C40.4936 30.7392 40.6302 31.6502 40.9035 32.1968C41.1313 32.789 41.4046 33.0623 41.4957 33.2445C41.5412 33.3812 41.359 33.3812 40.0836 33.3812C38.8081 33.3812 36.485 33.3812 35.2551 33.4267C33.9796 33.4723 33.843 33.5634 33.6152 33.7911C33.433 34.0189 33.1597 34.3833 33.0686 34.7477C32.9319 35.1121 32.9775 35.431 33.1597 35.7954C33.3419 36.1598 33.7519 36.5242 33.8885 36.7065C34.0252 36.9342 33.9796 36.9342 33.8885 37.0709C33.7974 37.162 33.6608 37.3897 33.6152 37.663C33.5697 37.9364 33.6152 38.3008 33.7519 38.6196C33.9341 38.9385 34.2074 39.2574 34.4352 39.4396C34.6174 39.6218 34.754 39.7129 34.7996 39.7584C34.7996 39.804 34.754 39.8495 34.6173 40.0773C34.5262 40.2595 34.3896 40.6239 34.3896 40.9883C34.3896 41.3983 34.5718 41.8083 34.8451 42.1271C35.164 42.446 35.6195 42.6738 35.8017 42.8104C36.0295 42.9471 35.9384 42.9471 35.8473 43.0837C35.8017 43.1748 35.6651 43.357 35.7106 43.6759C35.7562 43.9492 35.9384 44.3592 36.2117 44.678C36.485 44.9969 36.8494 45.2247 38.4437 45.3158C40.038 45.4069 42.8167 45.3613 44.821 44.9969C46.8708 44.678 48.1007 44.0859 49.3306 43.4937" stroke="#EF7F1A" stroke-width="1.37339" stroke-miterlimit="22.9256"/>
<path fill-rule="evenodd" clip-rule="evenodd" d="M10.9303 37.7998L12.2057 36.8432L12.7979 35.2034L14.1189 36.1144L15.8954 36.2055L15.4399 37.7543L15.8954 39.4397L14.2556 39.4852L12.7979 40.3963L12.2969 38.8931L10.9303 37.7998Z" stroke="#EF7F1A" stroke-width="0.686695" stroke-miterlimit="22.9256" stroke-linecap="round" stroke-linejoin="round"/>
<path fill-rule="evenodd" clip-rule="evenodd" d="M10.9303 27.5506L12.2057 26.594L12.7979 24.9541L14.1189 25.8651L15.8954 25.9562L15.4399 27.505L15.8954 29.1904H14.2556L12.7979 30.147L12.2969 28.6438L10.9303 27.5506Z" stroke="#EF7F1A" stroke-width="0.686695" stroke-miterlimit="22.9256" stroke-linecap="round" stroke-linejoin="round"/>
<path fill-rule="evenodd" clip-rule="evenodd" d="M10.9303 17.1192L12.2057 16.117L12.7979 14.4772L14.1189 15.3882L15.8954 15.4793L15.4399 17.0281L15.8954 18.7135L14.2556 18.7591L12.7979 19.7156L12.2969 18.2124L10.9303 17.1192Z" stroke="#EF7F1A" stroke-width="0.686695" stroke-miterlimit="22.9256" stroke-linecap="round" stroke-linejoin="round"/>
<path fill-rule="evenodd" clip-rule="evenodd" d="M19.0386 33.0624L20.314 32.1058L20.9517 30.4659L22.2727 31.377L24.0037 31.4681L23.5482 33.0168L24.0037 34.7023L22.4094 34.7478L20.9517 35.7044L20.4051 34.2012L19.0386 33.0624Z" stroke="#EF7F1A" stroke-width="0.686695" stroke-miterlimit="22.9256" stroke-linecap="round" stroke-linejoin="round"/>
<path fill-rule="evenodd" clip-rule="evenodd" d="M19.0386 22.631L20.314 21.6744L20.9517 20.0345L22.2727 20.9456L24.0037 21.0367L23.5482 22.5855L24.0037 24.2709H22.4094L20.9517 25.2275L20.4051 23.7243L19.0386 22.631Z" stroke="#EF7F1A" stroke-width="0.686695" stroke-miterlimit="22.9256" stroke-linecap="round" stroke-linejoin="round"/>
<path d="M31.7476 62.99H55.1157" stroke="#EF7F1A" stroke-width="0.686695" stroke-miterlimit="22.9256" stroke-linecap="round" stroke-linejoin="round"/>
<path d="M64.6816 62.99H80.6248" stroke="#EF7F1A" stroke-width="0.686695" stroke-miterlimit="22.9256" stroke-linecap="round" stroke-linejoin="round"/>
<path d="M31.2009 15.9348L33.2507 15.7071C33.2963 16.117 33.4329 16.4359 33.6607 16.6181C33.8885 16.8459 34.1618 16.937 34.4806 16.937C34.9361 16.937 35.3006 16.7092 35.6194 16.3448C35.9383 15.9348 36.1205 15.0693 36.2116 13.7939C35.665 14.4316 34.9817 14.7049 34.1618 14.7049C33.2963 14.7049 32.5675 14.3861 31.9297 13.7028C31.292 13.0195 30.9731 12.154 30.9731 11.0608C30.9731 9.92198 31.292 9.01094 31.9753 8.32766C32.6586 7.64438 33.4785 7.27997 34.5262 7.27997C35.665 7.27997 36.576 7.73549 37.3049 8.60097C38.0337 9.46646 38.3981 10.9241 38.3981 12.9284C38.3981 14.9782 38.0337 16.4359 37.2593 17.3469C36.5305 18.258 35.5283 18.7135 34.344 18.7135C33.4785 18.7135 32.7497 18.4857 32.2486 18.0302C31.702 17.5292 31.3375 16.8459 31.2009 15.9348ZM36.0294 11.243C36.0294 10.5597 35.8472 10.0131 35.5283 9.64867C35.2095 9.2387 34.8451 9.05649 34.4351 9.05649C34.0251 9.05649 33.7062 9.2387 33.4785 9.55756C33.2052 9.83087 33.0685 10.3775 33.0685 11.0608C33.0685 11.7896 33.2052 12.2907 33.4785 12.6551C33.7518 12.974 34.1162 13.1562 34.5718 13.1562C34.9817 13.1562 35.3006 12.974 35.5739 12.6551C35.8472 12.3362 36.0294 11.8807 36.0294 11.243ZM39.8558 15.9348L41.9511 15.7071C41.9967 16.117 42.1334 16.4359 42.3156 16.6181C42.5433 16.8459 42.8166 16.937 43.1811 16.937C43.591 16.937 43.9554 16.7092 44.2743 16.3448C44.5932 15.9348 44.7754 15.0693 44.8665 13.7939C44.3198 14.4316 43.6366 14.7049 42.8622 14.7049C41.9512 14.7049 41.2223 14.3861 40.5846 13.7028C39.9469 13.0195 39.628 12.154 39.628 11.0608C39.628 9.92198 39.9469 9.01094 40.6301 8.32766C41.3134 7.64438 42.1789 7.27997 43.1811 7.27997C44.3199 7.27997 45.2764 7.73549 46.0053 8.60097C46.6885 9.46646 47.053 10.9241 47.053 12.9284C47.053 14.9782 46.6886 16.4359 45.9597 17.3469C45.1853 18.258 44.2288 18.7135 42.9988 18.7135C42.1334 18.7135 41.4501 18.4857 40.9035 18.0302C40.3568 17.5292 39.9924 16.8459 39.8558 15.9348ZM44.6843 11.243C44.6843 10.5597 44.5021 10.0131 44.1832 9.64867C43.8643 9.2387 43.4999 9.05649 43.0899 9.05649C42.7255 9.05649 42.3611 9.2387 42.1334 9.55756C41.86 9.83087 41.7234 10.3775 41.7234 11.0608C41.7234 11.7896 41.86 12.2907 42.1334 12.6551C42.4522 12.974 42.7711 13.1562 43.2266 13.1562C43.6366 13.1562 43.9554 12.974 44.2743 12.6551C44.5476 12.3362 44.6843 11.8807 44.6843 11.243ZM48.4651 10.1042C48.4651 9.10204 48.6928 8.37321 49.1028 7.87214C49.5583 7.41662 50.1505 7.14331 50.9249 7.14331C51.6993 7.14331 52.2914 7.37107 52.747 7.87214C53.1569 8.32766 53.3847 9.10204 53.3847 10.1042C53.3847 11.1063 53.1569 11.8352 52.747 12.2907C52.2914 12.7917 51.6993 13.0195 50.9249 13.0195C50.1505 13.0195 49.5583 12.7917 49.1028 12.2907C48.6928 11.8352 48.4651 11.1063 48.4651 10.1042ZM50.1505 10.1042C50.1505 10.7875 50.1961 11.2885 50.3783 11.5163C50.5149 11.6985 50.6971 11.7896 50.9249 11.7896C51.1526 11.7896 51.3348 11.6985 51.4259 11.5163C51.6082 11.2885 51.6992 10.7875 51.6992 10.1042C51.6992 9.37535 51.6082 8.87428 51.4259 8.64652C51.3348 8.46432 51.1526 8.37321 50.9249 8.37321C50.6971 8.37321 50.5149 8.46432 50.3783 8.64652C50.1961 8.87428 50.1505 9.37535 50.1505 10.1042ZM52.5192 18.9413H50.9704L56.8922 7.14331H58.441L52.5192 18.9413ZM55.9811 16.0259C55.9811 15.0238 56.2089 14.2494 56.6644 13.7939C57.0744 13.2928 57.6666 13.0651 58.441 13.0651C59.2153 13.0651 59.8075 13.2928 60.263 13.7939C60.673 14.2494 60.9008 15.0238 60.9008 16.0259C60.9008 17.0281 60.673 17.7569 60.263 18.258C59.8075 18.7135 59.2153 18.9413 58.4865 18.9413C57.6666 18.9413 57.0744 18.7135 56.6644 18.258C56.2089 17.7569 55.9811 17.0281 55.9811 16.0259ZM57.6666 16.0259C57.6666 16.7548 57.7577 17.2103 57.8943 17.4836C58.031 17.6658 58.2132 17.7569 58.441 17.7569C58.6687 17.7569 58.8509 17.6658 58.942 17.4836C59.1242 17.2103 59.2153 16.7548 59.2153 16.0259C59.2153 15.2971 59.1242 14.796 58.9876 14.5683C58.8509 14.3405 58.6687 14.2494 58.441 14.2494C58.2132 14.2494 58.031 14.3405 57.8943 14.5683C57.7577 14.796 57.6666 15.2971 57.6666 16.0259Z" fill="#EF7F1A"/>
<path d="M31.9298 56.9316H75.7052" stroke="#EF7F1A" stroke-width="0.686695" stroke-miterlimit="22.9256" stroke-linecap="round" stroke-linejoin="round"/>
<path d="M64.135 51.2832H80.0782" stroke="#EF7F1A" stroke-width="0.686695" stroke-miterlimit="22.9256" stroke-linecap="round" stroke-linejoin="round"/>
<path d="M68.918 46.0447H77.1174" stroke="#EF7F1A" stroke-width="0.686695" stroke-miterlimit="22.9256" stroke-linecap="round" stroke-linejoin="round"/>
<path d="M69.2823 39.6675H81.7636" stroke="#EF7F1A" stroke-width="0.686695" stroke-miterlimit="22.9256" stroke-linecap="round" stroke-linejoin="round"/>
<path d="M69.2823 33.2446H76.7073" stroke="#EF7F1A" stroke-width="0.686695" stroke-miterlimit="22.9256" stroke-linecap="round" stroke-linejoin="round"/>
</svg>
