<svg width="89" height="81" viewBox="0 0 89 81" fill="none" xmlns="http://www.w3.org/2000/svg">
<path d="M79.3949 1.07617H9.2449C4.69137 1.07617 1 5.07345 1 10.0043V71.135C1 76.0659 4.69137 80.0632 9.2449 80.0632H79.3949C83.9484 80.0632 87.6398 76.0659 87.6398 71.135V10.0043C87.6398 5.07345 83.9484 1.07617 79.3949 1.07617Z" stroke="#EF7F1A" stroke-width="1.37339" stroke-miterlimit="22.9256"/>
<path fill-rule="evenodd" clip-rule="evenodd" d="M17.8088 58.2894H21.4985L21.6807 59.2916C20.5419 58.9271 19.0387 59.1549 17.8088 59.1549V58.2894ZM47.0531 24.4443L47.0076 24.3532C47.2809 23.26 47.372 22.7134 47.8275 21.6201C48.6475 19.4336 50.8795 16.9738 53.1115 16.1539L51.8361 24.6265C52.2916 24.8088 52.8382 24.8543 53.2482 25.0365C53.6126 24.3077 55.0703 13.603 55.3891 13.0108C55.8447 12.1453 56.4368 12.1453 57.6667 12.1453C58.1223 12.1453 58.6233 12.0998 59.0333 12.2364C59.7166 12.4186 59.3066 12.282 59.4888 12.5097C60.4454 13.4208 61.9031 23.7611 62.5863 25.1276C62.9963 24.8999 63.5429 24.8999 63.9985 24.7176C63.9073 23.5333 62.4497 17.3382 62.3586 16.1539C62.5863 16.245 63.4974 16.7916 63.5429 16.8372C63.5885 16.8372 63.634 16.8372 63.634 16.8827C63.6796 16.8827 63.6796 16.9283 63.7251 16.9283C63.7707 16.9283 63.7707 16.9738 63.8162 16.9738C63.8162 17.0194 63.8618 17.0194 63.9074 17.0649C65.0917 17.976 65.5928 18.5226 66.5038 19.8436C67.5971 21.4379 67.8248 22.2578 68.2348 24.0799C68.3259 24.6265 68.2348 24.9454 68.4625 25.5376C69.4647 25.5376 70.7857 25.6287 71.0135 26.813C71.2412 28.2707 70.148 28.2251 69.328 28.2251H46.051C45.7777 28.2251 45.4133 28.2251 45.1855 28.1796C44.32 28.0885 44.0467 27.5874 44.2745 26.6764C44.3656 26.2209 44.8666 25.7653 45.3677 25.7198L46.8254 25.492C47.1442 25.1732 47.0531 25.1276 47.0531 24.4443ZM22.1818 60.7037H23.0473C23.2295 60.3393 23.1839 60.4759 23.1839 59.9293V56.7407H22.0451V53.4609C23.275 53.3698 23.6395 53.0054 24.0039 53.0054C24.095 52.8687 24.2772 52.7776 24.4594 52.5954C24.6871 52.4132 25.006 52.0944 25.1427 51.7755C25.2338 51.5933 25.2793 51.4111 25.3249 51.2744V49.7712C28.1035 51.1378 31.4744 51.2744 34.253 49.6346C34.253 50.4545 34.0708 51.5933 34.6175 52.231C34.7997 52.4588 35.073 52.6865 35.2552 52.8232C35.3007 52.8687 35.3007 52.9143 35.3463 52.9143H35.3918C35.2552 53.4154 35.2096 53.2332 34.9363 53.7342C34.4808 54.6453 34.253 55.7841 34.253 56.8773C34.253 58.6538 34.253 60.3848 34.253 62.1158H22.0451L22.1818 60.7037ZM67.0504 55.6019H72.1978C72.1522 56.3307 72.1067 56.3307 72.2889 57.014C71.0135 56.6496 68.5081 56.8773 67.0504 56.8773V55.6019ZM43.0446 55.6019H48.1464V56.8773H43.2268C42.999 56.3307 43.0446 56.2396 43.0446 55.6019ZM19.0843 54.5997V54.3264C19.4031 54.1442 20.0408 54.0075 20.4964 54.0531C20.4964 54.9641 20.3597 56.0118 20.633 56.8773C19.9042 56.6951 19.7675 56.7407 19.0843 56.7407V54.5997ZM68.5992 50.2267C69.1914 50.5 70.0113 50.5 70.6035 50.7733V54.0531H68.7359C68.3259 53.0054 68.5992 51.3655 68.5992 50.2267ZM48.1464 49.9079C48.7841 49.6346 51.6539 49.0424 51.9727 48.6324C52.1094 48.4047 52.155 47.9036 52.155 47.7669V47.7214V47.6758V45.2616C53.476 45.5349 54.0226 46.4915 57.94 46.537C59.3066 46.537 60.0354 46.3548 61.0376 46.0359C61.5387 45.8537 61.812 45.8082 62.2675 45.5804C62.7686 45.3071 63.0874 45.0794 63.4974 45.0794V47.357C63.4974 47.4481 63.4974 47.5392 63.5429 47.5847C63.5429 47.9491 63.634 48.2224 63.8162 48.4502C63.9529 48.7235 64.2262 48.9057 64.4084 48.9968C64.4995 49.0424 64.5451 49.0879 64.5906 49.1335C64.955 49.2701 65.5472 49.4068 65.6839 49.4523C66.1849 49.589 66.5949 49.6801 67.0504 49.7712V54.0531C65.1373 54.0531 65.4561 53.3698 65.4561 58.0161C65.4561 58.7449 66.2761 58.2894 67.0504 58.5627L67.1871 60.567H48.1464V58.4261H49.5585C49.5585 53.1421 50.0596 54.0531 48.1464 54.0531V49.9079ZM44.5933 50.7733C45.4133 50.7278 45.8232 50.3634 46.5976 50.3634C46.5976 51.5933 46.4154 53.0054 46.7343 54.1897C45.9599 53.962 45.4133 54.0531 44.5933 54.0531V50.7733ZM21.9085 41.3897L21.7718 37.29H37.3961C37.3961 41.4352 37.9428 44.3961 34.9819 47.2659C32.6587 49.5434 28.1946 49.9079 25.7804 48.3135C24.3227 47.357 25.1882 47.9491 24.1405 46.9925C23.9583 46.8103 23.9128 46.7192 23.7306 46.537L22.5462 44.7149C22.1362 43.6673 21.9085 42.8473 21.9085 41.3897ZM48.1464 36.2878V30.0472C54.5237 30.0472 60.8554 30.0472 67.1871 30.0472C66.5494 32.7803 69.6013 41.6174 60.4454 44.6238C59.1699 45.0338 57.1201 45.0794 55.708 44.8516C55.6625 44.8516 55.4802 44.806 55.4347 44.806C55.3891 44.806 55.3436 44.806 55.3436 44.7605C54.2048 44.5327 53.2482 43.9861 52.3372 43.485C51.4717 42.984 51.7905 42.984 51.2439 42.6196C50.5606 42.1185 50.8339 42.3007 50.3329 41.663C50.1962 41.5263 50.1507 41.4808 50.014 41.2985C49.0119 40.0686 48.1464 38.0188 48.1464 36.2878ZM33.8431 26.0842C34.7541 26.4942 35.3463 27.1319 36.0751 27.8152C37.5328 29.1817 38.3527 31.4593 38.3527 33.5547C40.4937 33.5547 40.4937 33.6914 40.4937 35.149C39.4004 35.9234 36.4851 35.6046 34.9363 35.6046C32.7043 35.6046 25.3249 35.6957 21.7263 35.6501H19.6309C19.0843 35.6501 18.6743 35.1946 18.6743 34.6935C18.6743 34.4202 18.7654 34.1924 18.9021 34.0558V34.0102H18.9476C19.0843 33.828 19.3576 33.7369 19.5853 33.7369L19.6309 33.6914C19.8131 33.6003 20.0408 33.5092 20.2686 33.3725C20.4964 33.2359 20.633 33.0537 20.7697 32.8714C20.8608 32.6892 20.9519 32.507 21.043 32.3248C21.0885 32.1882 21.1341 32.0515 21.2252 31.8237C21.2252 31.6415 21.2708 31.5049 21.3163 31.3227C21.6352 30.2294 21.954 29.455 22.6373 28.544C23.8217 26.9952 24.1405 26.9041 25.5982 25.9476C25.5526 26.9497 24.5505 31.8693 24.5505 32.8714C25.0971 32.917 25.416 33.0992 25.9626 33.1448L27.5114 24.7632C28.1491 22.2578 27.9213 22.5312 30.8367 22.5312C31.2922 23.1689 31.3833 22.8956 31.611 23.8977C31.8843 24.9454 33.342 32.8259 33.3876 33.4636C33.9797 33.4181 34.253 33.1903 34.9363 33.1903C34.7541 32.4159 33.8431 26.9497 33.8431 26.0842ZM53.5671 14.2863C50.5606 15.0151 47.7364 18.0215 46.461 20.8457C46.2332 21.3013 46.051 21.9845 45.8688 22.5312C45.6866 23.0778 45.5955 23.7611 45.4588 24.3532C42.999 24.3532 41.8147 27.4052 43.5456 29.0451C44.4111 29.865 45.1855 29.7739 46.5976 29.7739C46.5976 34.8757 45.9599 39.1576 49.3307 42.9384C49.604 43.2117 50.1507 43.8039 50.5606 43.9406V47.6303L46.2332 48.8146C46.1421 48.8146 45.5955 48.9513 45.3222 49.0424C42.9079 49.6346 40.4481 50.2267 38.1705 50.9556C37.5328 51.1833 37.2139 51.4566 36.6673 51.7755C36.394 51.6388 36.1662 51.5477 35.8018 51.5022V48.4958C36.5762 47.9947 37.4872 46.7648 37.9428 45.8082C39.2638 43.0751 38.9449 40.1142 38.9449 37.0167C39.8559 37.0167 40.7214 37.0167 41.4047 36.3789C42.8168 35.0124 41.9058 32.3704 39.7648 32.3248C39.7648 30.8672 39.0816 29.4095 38.3527 28.2707L37.3961 26.9041C37.0317 26.4031 36.4851 26.0387 35.984 25.6287C35.3918 25.0821 34.6175 24.7176 33.8886 24.3532C33.8431 24.3532 33.7975 24.3077 33.752 24.3077C32.3854 23.5789 33.2965 20.9824 30.1534 20.9824C28.6957 20.9824 28.058 20.8913 27.2381 21.6201C26.6003 22.2123 26.1904 22.9867 26.1448 24.0799C24.5505 24.4443 22.7284 25.9931 21.8174 27.0863C20.633 28.4985 20.0864 30.0472 19.6309 31.7782C19.5398 32.2337 19.5398 32.1882 19.1298 32.3704C18.0366 32.7348 17.2166 33.3725 17.2166 34.7391C17.2166 35.2401 17.3077 35.4223 17.4899 35.7412C18.3554 37.3355 18.9476 36.6067 20.3597 37.1533C20.3597 40.7519 19.9953 43.9861 21.954 46.7648L23.2295 48.3135C23.275 48.3591 23.275 48.3591 23.3206 48.4046L23.7306 48.7691V51.5022L19.5853 52.5499C18.7198 52.8232 18.401 52.8687 17.4444 53.1421C14.8479 53.7798 11.6137 54.1897 10.6116 57.1051C9.97387 59.0638 10.2472 77.4668 10.2472 79.8355H11.8415V59.0183C11.8415 58.2439 11.9782 57.6517 12.3426 57.1051C13.0714 55.9207 14.1647 55.5563 15.4401 55.283C16.0778 55.1008 16.8978 54.6908 17.4899 54.873V56.7407H16.2145C16.2145 60.7948 15.6679 60.7037 17.6266 60.7037C17.4444 61.2958 17.4899 61.4781 17.4899 62.1158H15.6679V79.8355H17.2166V63.5279H19.0843V60.7037H20.4964V63.5279C22.4551 63.5279 33.2965 63.3001 34.253 63.7101C34.253 64.4389 34.253 65.2133 34.253 65.9877C34.253 67.3998 34.2075 76.1913 34.7541 79.6988C34.9819 81.2476 35.2552 79.5166 35.8018 79.5166V56.7407C35.8018 52.7321 39.2638 52.0944 42.4068 51.4111L43.0446 51.32C43.0446 52.2766 42.9535 53.2787 43.1812 54.1897C42.4979 54.0075 42.3613 54.0531 41.6325 54.0531V58.4261H43.0446C43.0446 61.2047 43.5912 60.567 40.767 60.567V77.9678C40.767 79.7899 40.8125 79.5166 42.3613 79.5166V62.1158C45.3222 62.1158 44.5933 62.7535 44.5933 58.4261H46.5976C46.5976 60.6126 46.2788 62.1158 47.0076 62.1158H68.1892C68.9181 62.1158 68.5992 60.4759 68.5992 58.4261C69.2825 58.4261 70.0113 58.335 70.6035 58.5627V62.1158H72.8811V79.2433C72.8811 79.7444 74.111 79.5166 74.4298 79.5166V61.7058C74.4298 61.0225 74.3387 61.1136 74.2932 60.567H72.1522V58.4261H73.5644V54.0531H72.2889C71.97 53.2787 72.1522 52.0944 72.1522 51.1833C73.1999 51.2744 74.8398 51.9122 75.8875 52.1399L77.1174 52.641C78.6206 53.4154 79.395 54.9641 79.395 56.7407V79.5166C79.8505 79.5166 80.9438 79.7899 80.9438 79.1067V56.8773C80.9438 55.693 80.7616 54.873 80.3516 53.962C80.306 53.9164 80.2605 53.8253 80.2605 53.7798C79.6683 52.5954 78.5751 51.6388 77.4363 51.0467C76.0697 50.4089 74.0199 50.1356 72.5167 49.6801L65.0462 47.6303V43.6672C65.5017 43.4395 65.5017 43.5306 65.8661 43.0751C66.0027 42.8473 65.9572 42.8929 66.1394 42.6651C69.4191 38.9299 68.7359 34.5569 68.7359 29.7739C69.8291 29.7739 70.9679 29.9106 71.8334 29.0451C72.79 28.0429 72.9266 25.8564 71.6967 24.991C71.3779 24.7632 71.1501 24.6265 70.8768 24.5354C70.3757 24.3988 69.8747 24.4899 69.738 23.9433C69.738 23.8066 69.6924 23.6244 69.6924 23.4422L69.1914 21.6657C69.0547 21.2557 69.0092 21.2102 68.827 20.8913C68.6903 20.5269 68.6903 20.3902 68.5081 20.0714L68.3259 19.8436C67.3237 18.2493 66.2305 16.9283 64.7273 15.7895L64.454 15.6073C64.1807 15.4251 64.4084 15.5617 64.0896 15.3795C63.8162 15.1973 63.6796 15.1517 63.4063 14.9695C62.8141 14.6051 62.4041 14.4229 61.7664 14.2863C61.7664 12.9653 61.2198 11.9631 60.3543 11.2343C60.3087 11.2343 60.2632 11.1887 60.2632 11.1432C59.2155 10.3688 57.6212 10.5966 56.3913 10.5966C54.7059 10.5966 53.5671 12.783 53.5671 14.2863Z" fill="#EF7F1A"/>
<path fill-rule="evenodd" clip-rule="evenodd" d="M26.5091 66.7621H34.6629V80.1088H26.5091C25.1426 80.1088 24.0493 78.97 24.0493 77.649V69.1763C24.0493 67.8553 25.1426 66.7621 26.5091 66.7621V66.7621Z" stroke="#EF7F1A" stroke-width="0.686695" stroke-miterlimit="22.9256" stroke-linecap="round" stroke-linejoin="round"/>
<path d="M64.0438 66.7621H51.6992C49.7117 66.7621 48.1006 67.843 48.1006 69.1763V77.6945C48.1006 79.0279 49.7117 80.1088 51.6992 80.1088H64.0438C66.0312 80.1088 67.6424 79.0279 67.6424 77.6945V69.1763C67.6424 67.843 66.0312 66.7621 64.0438 66.7621Z" stroke="#EF7F1A" stroke-width="0.686695" stroke-miterlimit="22.9256" stroke-linecap="round" stroke-linejoin="round"/>
<path d="M19.5396 33.1448L38.808 33.1903" stroke="#EF7F1A" stroke-width="0.686695" stroke-miterlimit="22.9256" stroke-linecap="round" stroke-linejoin="round"/>
<path d="M46.3696 25.0365L69.3278 25.082" stroke="#EF7F1A" stroke-width="0.686695" stroke-miterlimit="22.9256"/>
<path d="M23.8215 52.5955C24.687 53.6887 25.5525 54.7819 26.5091 55.6474C27.5112 56.5129 28.65 57.1051 29.7433 57.1506C30.8821 57.1506 32.0209 56.604 32.9319 55.7841C33.843 54.9642 34.5262 53.8709 35.2551 52.8232" stroke="#EF7F1A" stroke-width="0.686695" stroke-miterlimit="22.9256" stroke-linecap="round" stroke-linejoin="round"/>
<path d="M51.3804 48.3591C52.337 49.7257 53.3391 51.0922 54.4779 52.1399C55.6167 53.1876 56.8922 53.962 58.1676 54.0076C59.4886 54.0076 60.7641 53.3243 61.8118 52.2766C62.8595 51.2745 63.6794 49.9534 64.4538 48.6324" stroke="#EF7F1A" stroke-width="0.686695" stroke-miterlimit="22.9256" stroke-linecap="round" stroke-linejoin="round"/>
</svg>
