<svg width="115" height="81" viewBox="0 0 115 81" fill="none" xmlns="http://www.w3.org/2000/svg">
<path d="M24.0221 0.528809H109.022C109.751 0.528809 110.343 0.984328 110.343 1.5765V72.8197C110.343 73.4119 109.751 73.8674 109.022 73.8674H24.0221C23.2932 73.8674 22.701 73.4119 22.701 72.8197V61.4773H25.3431V71.8176H107.701V2.6242H25.3431V39.9768H22.701V1.5765C22.701 0.984328 23.2932 0.528809 24.0221 0.528809Z" fill="#EF7F1A"/>
<path fill-rule="evenodd" clip-rule="evenodd" d="M30.536 8.86475H60.0536V65.5769H30.536V61.4772H44.1105C46.5247 61.4772 48.4835 59.4729 48.4835 57.0587V44.3952C48.4835 41.981 46.5247 39.9767 44.1105 39.9767H30.536V8.86475V8.86475Z" stroke="#EF7F1A" stroke-width="0.686695" stroke-miterlimit="22.9256" stroke-linecap="round" stroke-linejoin="round"/>
<path fill-rule="evenodd" clip-rule="evenodd" d="M62.6957 7.17944H102.918V67.2169H62.6957V7.17944ZM65.4743 9.95811H100.094V64.4838H65.4743V36.9249H64.6544C64.0622 36.9249 63.6067 36.4693 63.6067 35.9227C63.6067 35.3761 64.0622 34.9206 64.6544 34.9206H65.4743V9.95811V9.95811Z" stroke="#EF7F1A" stroke-width="0.686695" stroke-miterlimit="22.9256" stroke-linecap="round" stroke-linejoin="round"/>
<path d="M113.441 73.1841H19.3303V79.9713H113.441V73.1841Z" stroke="#EF7F1A" stroke-width="1.37339" stroke-miterlimit="22.9256" stroke-linecap="round" stroke-linejoin="round"/>
<path d="M69.4373 34.9204H64.6999C64.1464 34.9204 63.6978 35.3691 63.6978 35.9226C63.6978 36.476 64.1464 36.9247 64.6999 36.9247H69.4373C69.9908 36.9247 70.4395 36.476 70.4395 35.9226C70.4395 35.3691 69.9908 34.9204 69.4373 34.9204Z" stroke="#EF7F1A" stroke-width="0.686695" stroke-miterlimit="22.9256" stroke-linecap="round" stroke-linejoin="round"/>
<path fill-rule="evenodd" clip-rule="evenodd" d="M12.133 39.9768H44.1105C46.5247 39.9768 48.4835 41.9811 48.4835 44.3953V57.0588C48.4835 59.473 46.5247 61.4773 44.1105 61.4773H12.133C10.1288 61.4773 8.39779 60.0652 7.89672 58.1976C4.11591 57.8332 1.15503 54.6901 1.15503 50.8637C1.15503 47.0374 4.07036 43.8943 7.85117 43.4843C8.26114 41.5256 10.0377 39.9768 12.133 39.9768V39.9768Z" stroke="#EF7F1A" stroke-width="1.37339" stroke-miterlimit="22.9256"/>
<path d="M7.89667 53.278C9.38097 53.278 10.5842 52.0747 10.5842 50.5904C10.5842 49.1061 9.38097 47.9028 7.89667 47.9028C6.41237 47.9028 5.20911 49.1061 5.20911 50.5904C5.20911 52.0747 6.41237 53.278 7.89667 53.278Z" stroke="#EF7F1A" stroke-width="0.686695" stroke-miterlimit="22.9256"/>
<path d="M35.7745 49.6338H31.8571V57.3321H35.7745V49.6338Z" stroke="#EF7F1A" stroke-width="0.686695" stroke-miterlimit="22.9256"/>
<path d="M31.8571 50.4537C30.946 49.7249 30.035 49.0416 29.4884 48.4494C28.8962 47.8572 28.714 47.3562 28.5318 46.8551C28.3496 46.354 28.1674 45.853 28.0763 45.3974C27.9852 44.8964 27.9852 44.4864 27.8941 44.2131C27.8485 43.9398 27.7574 43.8031 27.5752 43.712C27.393 43.6665 27.0741 43.712 26.8464 43.712C26.6186 43.7576 26.4364 43.8487 26.2542 44.122C26.1175 44.3497 25.9809 44.8053 25.9353 45.3519C25.8898 45.9441 25.8898 46.6273 25.9353 47.2651C26.0264 47.9028 26.1175 48.495 26.2542 48.8594C26.4364 49.2694 26.6186 49.4516 26.6642 49.5427C26.7097 49.6338 26.5731 49.6338 25.7531 49.6338C24.9332 49.6338 23.3844 49.6338 22.5189 49.6793C21.699 49.6793 21.6079 49.7704 21.4712 49.9071C21.3346 50.0893 21.1524 50.317 21.1068 50.5448C21.0157 50.7726 21.0157 51.0003 21.1524 51.2281C21.289 51.5014 21.5623 51.7292 21.6535 51.8658C21.7446 52.0025 21.699 52.0025 21.6535 52.0936C21.5623 52.1391 21.5168 52.2758 21.4712 52.458C21.4257 52.6858 21.4712 52.9135 21.5623 53.1413C21.6534 53.3235 21.8357 53.5512 21.9723 53.6423C22.1545 53.779 22.2456 53.8245 22.2456 53.8701C22.2456 53.9156 22.2001 53.9612 22.1545 54.0523C22.0634 54.189 21.9723 54.4167 21.9723 54.69C21.9723 54.9633 22.109 55.2367 22.2912 55.4189C22.5189 55.6466 22.7923 55.7833 22.9289 55.8744C23.0656 55.9655 23.02 55.9655 22.9745 56.0566C22.8834 56.1477 22.8378 56.2388 22.8834 56.4666C22.8834 56.6488 23.02 56.9221 23.2022 57.1498C23.3844 57.332 23.6122 57.4687 24.6599 57.5598C25.7076 57.6054 27.5752 57.5598 28.8962 57.332C30.2172 57.1498 31.0372 56.7399 31.8571 56.3299" stroke="#EF7F1A" stroke-width="0.686695" stroke-miterlimit="22.9256"/>
<path d="M8.85332 53.0958C8.94442 52.3214 9.08108 51.5015 8.44335 51.0915C7.85118 50.6815 6.53017 50.636 5.20917 51.5926C3.84261 52.5492 2.47604 54.4623 2.29383 56.6033C2.11163 58.7442 3.11377 61.1129 5.07251 62.7983C7.03124 64.4838 9.99211 65.5315 12.3608 66.4425C14.7751 67.3535 16.6883 68.1279 17.7815 69.2212C18.8292 70.3144 19.1025 71.7721 19.3303 73.1842" stroke="#EF7F1A" stroke-width="0.686695" stroke-miterlimit="22.9256"/>
<path d="M12.1331 61.4773C13.4996 63.1172 14.8206 64.8026 16.0505 66.0325C17.2349 67.3079 18.3281 68.1734 18.8747 69.2667C19.3758 70.4055 19.3758 71.8176 19.3303 73.1841" stroke="#EF7F1A" stroke-width="0.686695" stroke-miterlimit="22.9256"/>
</svg>
