<svg width="83" height="101" viewBox="0 0 83 101" fill="none" xmlns="http://www.w3.org/2000/svg">
<path fill-rule="evenodd" clip-rule="evenodd" d="M1.34595 7.39954H17.7446V11.3626H49.0843V7.39954H66.0297L66.1208 57.5522L63.4332 55.0924L60.4268 57.6889L56.9193 56.2312L55.0061 59.6931L51.1797 59.5109L50.5876 63.4284L46.9434 64.5672L47.7178 68.4391L44.7113 70.7623L46.7612 74.1787L44.7113 77.3673L47.8089 79.8727L47.3989 81.5125H46.579V81.5581H1.34595V81.5125V19.8352V7.39954Z" stroke="#EF7F1A" stroke-width="1.37339" stroke-miterlimit="22.9256" stroke-linecap="round" stroke-linejoin="round"/>
<path fill-rule="evenodd" clip-rule="evenodd" d="M17.7446 3.66431H27.265V4.98531H38.6986V3.66431H49.0844V11.3626H17.7446V3.66431Z" stroke="#EF7F1A" stroke-width="1.37339" stroke-miterlimit="22.9256" stroke-linecap="round" stroke-linejoin="round"/>
<path d="M38.6985 1.25H27.2649V4.98526H38.6985V1.25Z" stroke="#EF7F1A" stroke-width="1.37339" stroke-miterlimit="22.9256" stroke-linecap="round" stroke-linejoin="round"/>
<path fill-rule="evenodd" clip-rule="evenodd" d="M17.2436 16.5554H58.6047V32.9086H58.6503V56.96L56.9193 56.2312L55.0062 59.6931L51.1797 59.5109L50.5876 63.4284L46.9434 64.5672L47.7178 68.4391L44.7114 70.7622L46.4879 73.6775H45.0303L44.9847 73.7686H9.18091V23.3882L17.2436 16.5554Z" stroke="#EF7F1A" stroke-width="1.37339" stroke-miterlimit="22.9256" stroke-linecap="round" stroke-linejoin="round"/>
<path fill-rule="evenodd" clip-rule="evenodd" d="M17.2436 16.5554L9.18091 23.4793L17.2436 23.3427V16.5554Z" stroke="#EF7F1A" stroke-width="0.686695" stroke-miterlimit="22.9256" stroke-linecap="round" stroke-linejoin="round"/>
<path d="M23.4842 30.4032H15.7859V38.0559H23.4842V30.4032Z" stroke="#EF7F1A" stroke-width="0.686695" stroke-miterlimit="22.9256" stroke-linecap="round" stroke-linejoin="round"/>
<path d="M23.4842 44.8433H15.7859V52.496H23.4842V44.8433Z" stroke="#EF7F1A" stroke-width="0.686695" stroke-miterlimit="22.9256" stroke-linecap="round" stroke-linejoin="round"/>
<path d="M23.4842 58.7821H15.7859V66.4348H23.4842V58.7821Z" stroke="#EF7F1A" stroke-width="0.686695" stroke-miterlimit="22.9256" stroke-linecap="round" stroke-linejoin="round"/>
<path d="M28.3127 32.863H52.8196" stroke="#EF7F1A" stroke-width="0.686695" stroke-miterlimit="22.9256" stroke-linecap="round" stroke-linejoin="round"/>
<path d="M28.5405 35.5962H43.6182" stroke="#EF7F1A" stroke-width="0.686695" stroke-miterlimit="22.9256" stroke-linecap="round" stroke-linejoin="round"/>
<path d="M28.3127 47.303H52.8196" stroke="#EF7F1A" stroke-width="0.686695" stroke-miterlimit="22.9256" stroke-linecap="round" stroke-linejoin="round"/>
<path d="M28.5405 50.0361H43.6182" stroke="#EF7F1A" stroke-width="0.686695" stroke-miterlimit="22.9256" stroke-linecap="round" stroke-linejoin="round"/>
<path d="M28.3127 61.4697H49.8133" stroke="#EF7F1A" stroke-width="0.686695" stroke-miterlimit="22.9256" stroke-linecap="round" stroke-linejoin="round"/>
<path d="M28.5405 64.2028H43.6182" stroke="#EF7F1A" stroke-width="0.686695" stroke-miterlimit="22.9256" stroke-linecap="round" stroke-linejoin="round"/>
<path d="M17.2891 33.8651L19.3844 36.1883L22.2087 31.8608" stroke="#EF7F1A" stroke-width="0.686695" stroke-miterlimit="22.9256" stroke-linecap="round" stroke-linejoin="round"/>
<path d="M17.2891 48.533L19.3844 50.8561L22.2087 46.4832" stroke="#EF7F1A" stroke-width="0.686695" stroke-miterlimit="22.9256" stroke-linecap="round" stroke-linejoin="round"/>
<path d="M17.2891 62.4262L19.3844 64.7949L22.2087 60.4219" stroke="#EF7F1A" stroke-width="0.686695" stroke-miterlimit="22.9256" stroke-linecap="round" stroke-linejoin="round"/>
<path fill-rule="evenodd" clip-rule="evenodd" d="M63.4332 60.3765L65.4375 62.2441L68.0795 61.1964L69.3549 63.6562L72.2247 63.5651L72.5891 66.2982L75.2767 67.2093L74.6845 69.8968L76.9166 71.7189L75.4133 73.9965L76.9166 76.4563L74.7301 78.1417L75.2767 80.9204L72.6347 81.7403L72.2247 84.5645L69.4916 84.4279L68.0795 86.9332L65.5741 85.8855L63.4332 87.7532L61.3833 85.9311L58.7413 86.9332L57.4659 84.519L54.5961 84.5645L54.2772 81.8314L51.5441 80.9204L52.1363 78.2328L49.9498 76.4563L51.4075 74.1331L49.9498 71.7189L52.0908 70.0335L51.5441 67.2093L54.1861 66.3893L54.5961 63.5651L57.3747 63.7018L58.7413 61.1964L61.2922 62.2441L63.4332 60.3765Z" stroke="#EF7F1A" stroke-width="0.686695" stroke-miterlimit="22.9256" stroke-linecap="round" stroke-linejoin="round"/>
<path fill-rule="evenodd" clip-rule="evenodd" d="M57.0559 99.6421V91.8527L60.6089 90.4862L63.4331 93.0826L66.394 90.4862L69.9015 91.9438L71.1314 89.7573V99.6421L64.0253 96.5446L57.0559 99.6421Z" stroke="#EF7F1A" stroke-width="1.37339" stroke-miterlimit="22.9256" stroke-linecap="round" stroke-linejoin="round"/>
<path fill-rule="evenodd" clip-rule="evenodd" d="M63.4332 55.0924L66.2118 57.6433L69.9015 56.2312L71.6781 59.602L75.6411 59.5109L76.0966 63.2918L79.8774 64.5672L79.0575 68.3025L82.1095 70.7623L80.0597 73.9964L82.1095 77.3673L79.103 79.6904L79.8774 83.5624L76.2333 84.7012L75.6411 88.6186L71.8148 88.4364L69.9015 91.9439L66.3941 90.4863L63.4332 93.0827L60.609 90.4863L56.9193 91.9439L55.1427 88.5275L51.1797 88.6186L50.7242 84.8378L46.9434 83.5624L47.8089 79.8727L44.7113 77.3673L46.7612 74.1787L44.7113 70.7623L47.7177 68.4391L46.9434 64.5672L50.5875 63.4284L51.1797 59.5109L55.0061 59.6931L56.9193 56.2312L60.4268 57.6889L63.4332 55.0924Z" stroke="#EF7F1A" stroke-width="1.37339" stroke-miterlimit="22.9256" stroke-linecap="round" stroke-linejoin="round"/>
<path d="M70.676 71.9011H66.6674V79.7816H70.676V71.9011Z" stroke="#EF7F1A" stroke-width="0.686695" stroke-miterlimit="22.9256" stroke-linecap="round" stroke-linejoin="round"/>
<path d="M66.6674 72.721C65.7108 71.9921 64.7997 71.2633 64.2075 70.6711C63.6153 70.0789 63.4332 69.5779 63.251 69.0768C63.0232 68.5757 62.8865 68.0291 62.7954 67.5736C62.7043 67.0725 62.6588 66.6626 62.6132 66.3437C62.5677 66.0704 62.4766 65.9337 62.2488 65.8882C62.0666 65.7971 61.7933 65.8426 61.52 65.8882C61.2922 65.9337 61.1101 65.9793 60.9279 66.2526C60.7912 66.5259 60.6545 66.9814 60.609 67.528C60.5179 68.1202 60.5179 68.8035 60.609 69.4868C60.6545 70.1245 60.7912 70.7167 60.9279 71.1266C61.1101 71.5366 61.2923 71.7188 61.3378 71.8099C61.3834 71.901 61.2467 71.901 60.3812 71.901C59.5613 71.901 57.9669 71.901 57.1014 71.9466C56.2815 71.9921 56.1905 72.0377 56.0082 72.2199C55.8716 72.3565 55.6894 72.5843 55.6438 72.8576C55.5527 73.0854 55.5527 73.3131 55.6894 73.5409C55.826 73.8142 56.0993 74.042 56.1904 74.1786C56.3271 74.3153 56.2815 74.3608 56.1904 74.4064C56.1449 74.4975 56.0538 74.6341 56.0082 74.8163C55.9627 74.9986 56.0082 75.2719 56.0993 75.4541C56.236 75.6818 56.4182 75.9096 56.5548 76.0463C56.6915 76.1374 56.7826 76.1829 56.8281 76.2285C56.8281 76.274 56.7826 76.3196 56.6915 76.4562C56.6459 76.5929 56.5548 76.8206 56.5548 77.0939C56.5548 77.3673 56.6459 77.6406 56.8737 77.8683C57.0559 78.0505 57.3748 78.2327 57.5115 78.3238C57.6481 78.3694 57.6025 78.415 57.557 78.5061C57.4659 78.5516 57.4203 78.6883 57.4659 78.8705C57.4659 79.0982 57.6026 79.3715 57.7848 79.5993C57.967 79.7815 58.2403 79.9637 59.288 80.0093C60.3812 80.0548 62.2488 80.0093 63.6154 79.8271C64.9819 79.5993 65.8474 79.1893 66.6674 78.7794" stroke="#EF7F1A" stroke-width="0.686695" stroke-miterlimit="22.9256" stroke-linecap="round" stroke-linejoin="round"/>
</svg>
